<?xml version="1.0"?><svg width="640" height="480" xmlns="http://www.w3.org/2000/svg">
 <title>Puzzle Pieces Connected x4</title>
 <g>
  <title>Layer 1</title>
  <g id="g842">
   <path d="m-48.859375,163.84375c0.55957,15.199432 5.65332,32.248627 16.5625,41.34375c28.187744,13.229248 15.172913,-18.907715 34.6875,-22.6875c19.514587,-3.779785 20.59375,18.90625 20.59375,18.90625l0,0l0,97.75c0,0 96.9375,-0.125 96.9375,-0.125c0,0 22.686035,-1.079224 18.90625,-20.59375c-3.071045,-15.855621 -24.878052,-10.232758 -25.84375,-22.6875c-0.222839,-2.874176 0.675781,-6.714813 3.15625,-12c9.095093,-10.90921 26.144287,-16.00296 41.34375,-16.5625c5.610962,-0.206573 10.887939,0.283295 15.5,1.25c0.204712,0.024811 0.420166,0.067291 0.625,0.09375c13.11438,1.693909 26.417847,6.76178 34.09375,15.96875c13.229248,28.187744 -18.907715,15.172913 -22.6875,34.6875c-2.753906,14.218201 8.478333,18.610474 14.8125,19.96875l102.90625,0l0,-101.59375c1.218262,-6.201233 5.489075,-18.241089 20.125,-15.40625c19.514648,3.779785 6.499756,35.885498 34.6875,22.65625c9.20697,-7.675964 14.274841,-20.97934 15.96875,-34.09375c0.026489,-0.204834 0.06897,-0.420319 0.09375,-0.625c0.966675,-4.612061 1.456543,-9.889069 1.25,-15.5c-0.55957,-15.199463 -5.65332,-32.248657 -16.5625,-41.34375c-28.187744,-13.229248 -15.172913,18.907715 -34.6875,22.6875c-19.514526,3.779785 -20.59375,-18.90625 -20.59375,-18.90625l-0.28125,-97.1875c0,0 -98.25,0.625 -98.25,0.625c0,0 -22.686035,1.079163 -18.90625,20.59375c3.779785,19.514587 35.916748,6.499756 22.6875,34.6875c-9.095093,10.90918 -26.144287,16.00296 -41.34375,16.5625c-5.610962,0.206543 -10.887939,-0.283295 -15.5,-1.25c-0.204712,-0.024841 -0.420166,-0.067291 -0.625,-0.09375c-13.11438,-1.693909 -26.417847,-6.76178 -34.09375,-15.96875c-2.480469,-5.285217 -3.379089,-9.125854 -3.15625,-12c0.965698,-12.454742 22.741455,-6.831909 25.8125,-22.6875c3.526733,-18.207916 -15.339722,-20.261292 -17.96875,-20.46875l-98.40625,0l0,102.15625c-1.481934,6.405579 -5.991882,16.964233 -19.84375,14.28125c-19.514587,-3.779785 -6.499756,-35.885529 -34.6875,-22.65625c-9.206909,7.675934 -14.274841,20.979309 -15.96875,34.09375c-0.026428,0.204834 -0.068909,0.420288 -0.09375,0.625c-0.966675,4.61203 -1.456543,9.889038 -1.25,15.5z" id="path1572" stroke-width="2.8679966pt" fill-rule="evenodd" fill-opacity="0.5" fill="#ffffff"/>
   <path d="m-65.578125,148.828094c0.559509,15.199432 5.65332,32.248627 16.5625,41.34375c28.187744,13.229248 15.172913,-18.907715 34.6875,-22.6875c19.514587,-3.779785 20.59375,18.90625 20.59375,18.90625l0,0l0,97.750031c0,0 96.9375,-0.125 96.9375,-0.125c0,0 22.686035,-1.079224 18.90625,-20.593781c-3.071106,-15.855591 -24.878052,-10.232758 -25.84375,-22.6875c-0.2229,-2.874176 0.675781,-6.714813 3.15625,-12c9.095093,-10.90921 26.144287,-16.00296 41.34375,-16.5625c5.610962,-0.206573 10.887939,0.283295 15.5,1.25c0.204712,0.024811 0.420166,0.067291 0.625,0.09375c13.11438,1.693909 26.417786,6.76181 34.09375,15.96875c13.229248,28.187744 -18.907715,15.172913 -22.6875,34.6875c-2.753906,14.21817 8.478333,18.610443 14.8125,19.968781l102.90625,0l0,-101.593781c1.218262,-6.201233 5.489075,-18.241089 20.125,-15.40625c19.514587,3.779785 6.499756,35.885529 34.6875,22.65625c9.20697,-7.675934 14.274841,-20.97934 15.96875,-34.09375c0.026489,-0.204834 0.06897,-0.420319 0.09375,-0.625c0.966675,-4.61203 1.456543,-9.889069 1.25,-15.5c-0.55957,-15.199432 -5.65332,-32.248627 -16.5625,-41.34375c-28.187744,-13.229279 -15.172913,18.907684 -34.6875,22.6875c-19.514587,3.779816 -20.59375,-18.90625 -20.59375,-18.90625l-0.28125,-97.1875c0,0 -98.25,0.625 -98.25,0.625c0,0 -22.686035,1.079178 -18.90625,20.59375c3.779785,19.514587 35.916748,6.499786 22.6875,34.6875c-9.095093,10.90921 -26.144287,16.00296 -41.34375,16.5625c-5.610962,0.206573 -10.887939,-0.283295 -15.5,-1.25c-0.204712,-0.024811 -0.420166,-0.067291 -0.625,-0.09375c-13.11438,-1.693909 -26.417847,-6.76181 -34.09375,-15.96875c-2.480469,-5.285187 -3.37915,-9.125824 -3.15625,-12c0.965698,-12.454742 22.741394,-6.831879 25.8125,-22.6875c3.526672,-18.207901 -15.339722,-20.261292 -17.96875,-20.46875l-98.40625,0l0,102.15625c-1.481934,6.405579 -5.991882,16.964203 -19.84375,14.28125c-19.514587,-3.779785 -6.499756,-35.885529 -34.6875,-22.65625c-9.20697,7.675934 -14.274841,20.97934 -15.96875,34.09375c-0.026489,0.204803 -0.06897,0.420319 -0.09375,0.625c-0.966675,4.61203 -1.456543,9.889038 -1.25,15.5z" id="path1099" stroke-linejoin="round" stroke-width="12.5" stroke="#000000" fill-rule="evenodd" fill="#ffffff"/>
  </g>
  <g id="svg_1" transform="rotate(-90.1709976196289 431.5,135.5) ">
   <path d="m227.984375,147.351563c0.55957,15.199432 5.65332,32.248627 16.5625,41.34375c28.187744,13.229248 15.172913,-18.907715 34.6875,-22.6875c19.514587,-3.779785 20.59375,18.90625 20.59375,18.90625l0,0l0,97.75c0,0 96.9375,-0.125 96.9375,-0.125c0,0 22.686035,-1.079224 18.90625,-20.59375c-3.071045,-15.855591 -24.878052,-10.232788 -25.84375,-22.6875c-0.222839,-2.874176 0.675781,-6.714813 3.15625,-12c9.095093,-10.90921 26.144287,-16.00296 41.34375,-16.5625c5.610962,-0.206573 10.887939,0.283295 15.5,1.25c0.204712,0.024811 0.420166,0.067291 0.625,0.09375c13.11438,1.693909 26.417847,6.76178 34.09375,15.96875c13.229248,28.187744 -18.907715,15.172913 -22.6875,34.6875c-2.753906,14.218201 8.478333,18.610474 14.8125,19.96875l102.90625,0l0,-101.59375c1.218262,-6.201233 5.489014,-18.241089 20.125,-15.40625c19.514648,3.779785 6.499756,35.885498 34.6875,22.65625c9.207031,-7.675964 14.274902,-20.97934 15.96875,-34.09375c0.026489,-0.204834 0.06897,-0.420319 0.09375,-0.625c0.966675,-4.612061 1.456543,-9.889069 1.25,-15.5c-0.55957,-15.199463 -5.65332,-32.248657 -16.5625,-41.34375c-28.187744,-13.229248 -15.172852,18.907715 -34.6875,22.6875c-19.514526,3.779785 -20.59375,-18.90625 -20.59375,-18.90625l-0.28125,-97.1875c0,0 -98.25,0.625 -98.25,0.625c0,0 -22.686035,1.079163 -18.90625,20.59375c3.779785,19.514587 35.916748,6.499756 22.6875,34.6875c-9.095093,10.90918 -26.144287,16.00296 -41.34375,16.5625c-5.610962,0.206543 -10.887939,-0.283295 -15.5,-1.25c-0.204712,-0.024841 -0.420166,-0.067291 -0.625,-0.09375c-13.11438,-1.693909 -26.417847,-6.76178 -34.09375,-15.96875c-2.480469,-5.285217 -3.379089,-9.125854 -3.15625,-12c0.965698,-12.454742 22.741455,-6.831909 25.8125,-22.6875c3.526733,-18.207916 -15.339722,-20.261292 -17.96875,-20.46875l-98.40625,0l0,102.15625c-1.481934,6.405579 -5.991882,16.964233 -19.84375,14.28125c-19.514587,-3.779785 -6.499756,-35.885529 -34.6875,-22.65625c-9.206909,7.675934 -14.274841,20.979309 -15.96875,34.09375c-0.026428,0.204834 -0.068909,0.420288 -0.09375,0.625c-0.966675,4.61203 -1.456543,9.889038 -1.25,15.5z" stroke-width="2.8679966pt" fill-rule="evenodd" fill-opacity="0.5" fill="#ffffff" id="svg_2"/>
   <path d="m211.265625,132.335907c0.559509,15.199432 5.65332,32.248627 16.5625,41.34375c28.187744,13.229248 15.172913,-18.907715 34.6875,-22.6875c19.514587,-3.779785 20.59375,18.90625 20.59375,18.90625l0,0l0,97.750031c0,0 96.9375,-0.125 96.9375,-0.125c0,0 22.686035,-1.079224 18.90625,-20.59375c-3.071106,-15.855621 -24.878052,-10.232788 -25.84375,-22.687531c-0.2229,-2.874176 0.675781,-6.714813 3.15625,-12c9.095093,-10.90921 26.144287,-16.00296 41.34375,-16.5625c5.610962,-0.206573 10.887939,0.283295 15.5,1.25c0.204712,0.024811 0.420166,0.067291 0.625,0.09375c13.11438,1.693909 26.417786,6.76181 34.09375,15.96875c13.229248,28.187744 -18.907715,15.172913 -22.6875,34.687531c-2.753906,14.21814 8.478333,18.610413 14.8125,19.96875l102.90625,0l0,-101.593781c1.218262,-6.201233 5.489014,-18.241089 20.125,-15.40625c19.514648,3.779785 6.499756,35.885529 34.6875,22.65625c9.207031,-7.675934 14.274902,-20.97934 15.96875,-34.09375c0.026489,-0.204834 0.06897,-0.420319 0.09375,-0.625c0.966675,-4.61203 1.456543,-9.889069 1.25,-15.5c-0.55957,-15.199432 -5.65332,-32.248627 -16.5625,-41.34375c-28.187744,-13.229279 -15.172852,18.907684 -34.6875,22.6875c-19.514648,3.779816 -20.59375,-18.90625 -20.59375,-18.90625l-0.28125,-97.1875c0,0 -98.25,0.625 -98.25,0.625c0,0 -22.686035,1.079193 -18.90625,20.59375c3.779785,19.514587 35.916748,6.499786 22.6875,34.6875c-9.095093,10.90921 -26.144287,16.00296 -41.34375,16.5625c-5.610962,0.206573 -10.887939,-0.283295 -15.5,-1.25c-0.204712,-0.024811 -0.420166,-0.067291 -0.625,-0.09375c-13.11438,-1.693909 -26.417847,-6.76181 -34.09375,-15.96875c-2.480469,-5.285187 -3.37915,-9.125824 -3.15625,-12c0.965698,-12.454742 22.741394,-6.831879 25.8125,-22.6875c3.526672,-18.207916 -15.339722,-20.261292 -17.96875,-20.46875l-98.40625,0l0,102.15625c-1.481934,6.405579 -5.991882,16.964203 -19.84375,14.28125c-19.514587,-3.779785 -6.499756,-35.885529 -34.6875,-22.65625c-9.20697,7.675934 -14.274841,20.97934 -15.96875,34.09375c-0.026489,0.204803 -0.06897,0.420319 -0.09375,0.625c-0.966675,4.61203 -1.456543,9.889038 -1.25,15.5z" stroke-linejoin="round" stroke-width="12.5" stroke="#000000" fill-rule="evenodd" fill="#ffffff" id="svg_3"/>
  </g>
  <g transform="rotate(-90.1709976196289 154.50000000000003,415.50201416015625) " id="svg_4">
   <path d="m-49.015625,427.353516c0.55957,15.199402 5.65332,32.248657 16.5625,41.34375c28.187744,13.229248 15.172913,-18.907715 34.687515,-22.6875c19.514572,-3.779785 20.593735,18.90625 20.593735,18.90625l0,0l0,97.75c0,0 96.9375,-0.125 96.9375,-0.125c0,0 22.686035,-1.079224 18.90625,-20.59375c-3.071045,-15.855591 -24.878052,-10.232788 -25.84375,-22.6875c-0.222839,-2.874146 0.675781,-6.714783 3.15625,-12c9.095093,-10.90918 26.144287,-16.00293 41.34375,-16.5625c5.610962,-0.206543 10.887939,0.283325 15.5,1.25c0.204712,0.02478 0.420166,0.067261 0.625,0.09375c13.11438,1.693909 26.417847,6.76178 34.09375,15.96875c13.229248,28.187744 -18.907715,15.172913 -22.6875,34.6875c-2.753906,14.218201 8.478271,18.610474 14.8125,19.96875l102.90625,0l0,-101.59375c1.218262,-6.201233 5.489014,-18.241089 20.125,-15.40625c19.514648,3.779785 6.499756,35.885498 34.6875,22.65625c9.207031,-7.675964 14.274902,-20.97937 15.96875,-34.09375c0.026489,-0.204834 0.06897,-0.420288 0.09375,-0.625c0.966675,-4.612061 1.456543,-9.889099 1.25,-15.5c-0.55957,-15.199463 -5.65332,-32.248657 -16.5625,-41.34375c-28.187744,-13.229248 -15.172852,18.907715 -34.6875,22.6875c-19.514526,3.779785 -20.59375,-18.90625 -20.59375,-18.90625l-0.28125,-97.1875c0,0 -98.25,0.625 -98.25,0.625c0,0 -22.686035,1.079163 -18.90625,20.59375c3.779785,19.514587 35.916748,6.499756 22.6875,34.6875c-9.095093,10.90918 -26.144287,16.00296 -41.34375,16.5625c-5.610962,0.206543 -10.887939,-0.283295 -15.5,-1.25c-0.204712,-0.024841 -0.420166,-0.067291 -0.625,-0.09375c-13.11438,-1.693909 -26.417847,-6.76178 -34.09375,-15.96875c-2.480469,-5.285217 -3.379089,-9.125854 -3.15625,-12c0.965698,-12.454742 22.741455,-6.831909 25.8125,-22.6875c3.526733,-18.207916 -15.339722,-20.261292 -17.96875,-20.46875l-98.40625,0l0,102.15625c-1.481934,6.405579 -5.991882,16.964233 -19.84375,14.28125c-19.514587,-3.779785 -6.499756,-35.885529 -34.6875,-22.65625c-9.206909,7.675934 -14.274841,20.979309 -15.96875,34.09375c-0.026428,0.204834 -0.068909,0.420288 -0.09375,0.625c-0.966675,4.612061 -1.456543,9.889038 -1.25,15.5z" stroke-width="2.8679966pt" fill-rule="evenodd" fill-opacity="0.5" fill="#ffffff" id="svg_5"/>
   <path d="m-65.734375,412.337891c0.559509,15.199402 5.65332,32.248596 16.5625,41.34375c28.187744,13.229248 15.172913,-18.907715 34.6875,-22.6875c19.514587,-3.779846 20.59375,18.90625 20.59375,18.90625l0,0l0,97.75c0,0 96.9375,-0.125 96.9375,-0.125c0,0 22.686035,-1.079224 18.90625,-20.59375c-3.071106,-15.855591 -24.878052,-10.232788 -25.84375,-22.6875c-0.2229,-2.874207 0.675781,-6.714844 3.15625,-12c9.095093,-10.909241 26.144287,-16.002991 41.34375,-16.5625c5.610962,-0.206604 10.887939,0.283264 15.5,1.25c0.204712,0.02478 0.420166,0.067261 0.625,0.09375c13.11438,1.693848 26.417725,6.76178 34.09375,15.96875c13.229248,28.187744 -18.907715,15.172852 -22.6875,34.6875c-2.753906,14.21814 8.478271,18.610413 14.8125,19.96875l102.90625,0l0,-101.59375c1.218262,-6.201294 5.489014,-18.241089 20.125,-15.40625c19.514648,3.779785 6.499756,35.885498 34.6875,22.65625c9.207031,-7.675964 14.274902,-20.97937 15.96875,-34.09375c0.026489,-0.204895 0.06897,-0.420349 0.09375,-0.625c0.966675,-4.612061 1.456543,-9.889099 1.25,-15.5c-0.55957,-15.199463 -5.65332,-32.248657 -16.5625,-41.343781c-28.187744,-13.229279 -15.172852,18.907684 -34.6875,22.6875c-19.514648,3.779816 -20.59375,-18.90625 -20.59375,-18.90625l-0.28125,-97.1875c0,0 -98.25,0.625 -98.25,0.625c0,0 -22.686035,1.079193 -18.90625,20.59375c3.779785,19.514587 35.916748,6.499786 22.6875,34.6875c-9.095093,10.90921 -26.144287,16.00296 -41.34375,16.5625c-5.610962,0.206573 -10.887939,-0.283295 -15.5,-1.25c-0.204712,-0.024811 -0.420166,-0.067291 -0.625,-0.09375c-13.11438,-1.693909 -26.417847,-6.76181 -34.09375,-15.96875c-2.480469,-5.285187 -3.37915,-9.125824 -3.15625,-12c0.965698,-12.454742 22.741394,-6.831879 25.8125,-22.6875c3.526672,-18.207916 -15.339722,-20.261292 -17.96875,-20.46875l-98.40625,0l0,102.15625c-1.481934,6.405579 -5.991882,16.964203 -19.84375,14.28125c-19.514587,-3.779785 -6.499756,-35.885529 -34.6875,-22.65625c-9.20697,7.675934 -14.274841,20.97934 -15.96875,34.09375c-0.026489,0.204803 -0.06897,0.420319 -0.09375,0.625c-0.966675,4.61203 -1.456543,9.889069 -1.25,15.500031z" stroke-linejoin="round" stroke-width="12.5" stroke="#000000" fill-rule="evenodd" fill="#ffffff" id="svg_6"/>
  </g>
  <g id="svg_7">
   <path id="svg_8" d="m228.140625,443.84375c0.55957,15.199432 5.65332,32.248627 16.5625,41.34375c28.187744,13.229248 15.172913,-18.907715 34.6875,-22.6875c19.514587,-3.779785 20.59375,18.90625 20.59375,18.90625l0,0l0,97.75c0,0 96.9375,-0.125 96.9375,-0.125c0,0 22.686035,-1.079224 18.90625,-20.59375c-3.071045,-15.855652 -24.878052,-10.232788 -25.84375,-22.6875c-0.222839,-2.874146 0.675781,-6.714783 3.15625,-12c9.095093,-10.90918 26.144287,-16.00296 41.34375,-16.5625c5.610962,-0.206573 10.887939,0.283295 15.5,1.25c0.204712,0.024811 0.420166,0.067291 0.625,0.09375c13.11438,1.693909 26.417847,6.76178 34.09375,15.96875c13.229248,28.187744 -18.907715,15.172913 -22.6875,34.6875c-2.753906,14.218201 8.478333,18.610474 14.8125,19.96875l102.90625,0l0,-101.59375c1.218262,-6.201233 5.489075,-18.241089 20.125,-15.40625c19.514648,3.779785 6.499756,35.885498 34.6875,22.65625c9.20697,-7.675964 14.274841,-20.97934 15.96875,-34.09375c0.026489,-0.204834 0.06897,-0.420319 0.09375,-0.625c0.966675,-4.612061 1.456543,-9.889069 1.25,-15.5c-0.55957,-15.199463 -5.65332,-32.248657 -16.5625,-41.34375c-28.187744,-13.229248 -15.172913,18.907715 -34.6875,22.6875c-19.514526,3.779785 -20.59375,-18.90625 -20.59375,-18.90625l-0.28125,-97.1875c0,0 -98.25,0.625 -98.25,0.625c0,0 -22.686035,1.079163 -18.90625,20.59375c3.779785,19.514587 35.916748,6.499756 22.6875,34.6875c-9.095093,10.90918 -26.144287,16.00296 -41.34375,16.5625c-5.610962,0.206543 -10.887939,-0.283295 -15.5,-1.25c-0.204712,-0.024841 -0.420166,-0.067291 -0.625,-0.09375c-13.11438,-1.693909 -26.417847,-6.76178 -34.09375,-15.96875c-2.480469,-5.285217 -3.379059,-9.125854 -3.15625,-12c0.965698,-12.454742 22.741455,-6.831909 25.8125,-22.6875c3.526733,-18.207916 -15.339722,-20.261292 -17.968719,-20.46875l-98.406281,0l0,102.15625c-1.481934,6.405579 -5.991882,16.964233 -19.84375,14.28125c-19.514587,-3.779785 -6.499756,-35.885529 -34.6875,-22.65625c-9.206909,7.675934 -14.274841,20.979309 -15.96875,34.09375c-0.026428,0.204834 -0.068909,0.420288 -0.09375,0.625c-0.966675,4.61203 -1.456543,9.889038 -1.25,15.5z" stroke-width="2.8679966pt" fill-rule="evenodd" fill-opacity="0.5" fill="#ffffff"/>
   <path id="svg_9" d="m211.421875,428.828094c0.559509,15.199432 5.65332,32.248627 16.5625,41.34375c28.187744,13.229248 15.172913,-18.907715 34.6875,-22.6875c19.514587,-3.779785 20.59375,18.90625 20.59375,18.90625l0,0l0,97.750031c0,0 96.9375,-0.125 96.9375,-0.125c0,0 22.686035,-1.079224 18.90625,-20.59375c-3.071106,-15.855652 -24.878052,-10.232788 -25.84375,-22.6875c-0.2229,-2.874207 0.675781,-6.714844 3.15625,-12.000031c9.095093,-10.90921 26.144287,-16.00296 41.34375,-16.5625c5.610962,-0.206573 10.887939,0.283295 15.5,1.25c0.204712,0.024811 0.420166,0.067291 0.625,0.09375c13.11438,1.693909 26.417786,6.76181 34.09375,15.96875c13.229248,28.187714 -18.907715,15.172882 -22.6875,34.687469c-2.753906,14.218201 8.478333,18.610474 14.8125,19.968811l102.90625,0l0,-101.593781c1.218262,-6.201233 5.489075,-18.241089 20.125,-15.40625c19.514587,3.779785 6.499756,35.885529 34.6875,22.65625c9.20697,-7.675934 14.274841,-20.97934 15.96875,-34.09375c0.026489,-0.204834 0.06897,-0.420319 0.09375,-0.625c0.966675,-4.61203 1.456543,-9.889069 1.25,-15.5c-0.55957,-15.199432 -5.65332,-32.248627 -16.5625,-41.34375c-28.187744,-13.229279 -15.172913,18.907684 -34.6875,22.6875c-19.514587,3.779816 -20.59375,-18.90625 -20.59375,-18.90625l-0.28125,-97.1875c0,0 -98.25,0.625 -98.25,0.625c0,0 -22.686035,1.079163 -18.90625,20.59375c3.779785,19.514587 35.916748,6.499786 22.6875,34.6875c-9.095093,10.90921 -26.144287,16.00296 -41.34375,16.5625c-5.610962,0.206573 -10.887939,-0.283295 -15.5,-1.25c-0.204712,-0.024811 -0.420166,-0.067291 -0.625,-0.09375c-13.114349,-1.693909 -26.417847,-6.76181 -34.09375,-15.96875c-2.480469,-5.285187 -3.37915,-9.125824 -3.15625,-12c0.965698,-12.454742 22.741394,-6.831879 25.8125,-22.6875c3.526672,-18.207916 -15.339722,-20.261292 -17.96875,-20.46875l-98.40625,0l0,102.15625c-1.481934,6.405579 -5.991882,16.964203 -19.84375,14.28125c-19.514587,-3.779785 -6.499756,-35.885529 -34.6875,-22.65625c-9.20697,7.675934 -14.274841,20.97934 -15.968765,34.09375c-0.026474,0.204803 -0.068939,0.420319 -0.093735,0.625c-0.966675,4.61203 -1.456543,9.889038 -1.25,15.5z" stroke-linejoin="round" stroke-width="12.5" stroke="#000000" fill-rule="evenodd" fill="#ffffff"/>
  </g>
 </g>
</svg>