<?xml version="1.0" encoding="UTF-8"?>
<!DOCTYPE svg PUBLIC "-//W3C//DTD SVG 1.1//EN" "http://www.w3.org/Graphics/SVG/1.1/DTD/svg11.dtd">
<!-- Creator: CorelDRAW X7 -->
<svg xmlns="http://www.w3.org/2000/svg" xml:space="preserve" width="300px" height="300px" version="1.1" style="shape-rendering:geometricPrecision; text-rendering:geometricPrecision; image-rendering:optimizeQuality; fill-rule:evenodd; clip-rule:evenodd"
viewBox="0 0 30 30"
 xmlns:xlink="http://www.w3.org/1999/xlink">
 <defs>
  <style type="text/css">
   <![CDATA[
    .fil7 {fill:none}
    .fil2 {fill:#DCDDDD}
    .fil1 {fill:#8B8B8C}
    .fil4 {fill:#7B7B7B}
    .fil3 {fill:#757475}
    .fil5 {fill:#C9CACA;fill-rule:nonzero}
    .fil6 {fill:url(#id23);fill-rule:nonzero}
    .fil0 {fill:url(#id24);fill-rule:nonzero}
   ]]>
  </style>
   <clipPath id="id0">
    <path d="M0 0l30 0 0 30 -30 0 0 -30z"/>
   </clipPath>
      <mask id="id1">
  <linearGradient id="id2" gradientUnits="userSpaceOnUse" x1="6.85992" y1="9.40738" x2="6.85992" y2="6.87947">
   <stop offset="0" style="stop-opacity:1; stop-color:white"/>
   <stop offset="1" style="stop-opacity:0; stop-color:white"/>
  </linearGradient>
       <rect style="fill:url(#id2)" x="6" y="6" width="1.96705" height="4.36657"/>
      </mask>
      <mask id="id3">
  <linearGradient id="id4" gradientUnits="userSpaceOnUse" x1="7.12776" y1="13.369" x2="4.59396" y2="13.8848">
   <stop offset="0" style="stop-opacity:1; stop-color:white"/>
   <stop offset="1" style="stop-opacity:0; stop-color:white"/>
  </linearGradient>
       <rect style="fill:url(#id4)" x="4" y="11" width="2.96744" height="4.53373"/>
      </mask>
      <mask id="id5">
  <linearGradient id="id6" gradientUnits="userSpaceOnUse" x1="15.763" y1="9.78943" x2="17.1491" y2="8.22581">
   <stop offset="0" style="stop-opacity:1; stop-color:white"/>
   <stop offset="1" style="stop-opacity:0; stop-color:white"/>
  </linearGradient>
       <rect style="fill:url(#id6)" x="14" y="8" width="5.10863" height="2.83494"/>
      </mask>
      <mask id="id7">
  <linearGradient id="id8" gradientUnits="userSpaceOnUse" x1="12.4451" y1="6.80769" x2="11.1015" y2="4.94212">
   <stop offset="0" style="stop-opacity:1; stop-color:white"/>
   <stop offset="1" style="stop-opacity:0; stop-color:white"/>
  </linearGradient>
       <rect style="fill:url(#id8)" x="9" y="4" width="4.59206" height="2.86594"/>
      </mask>
      <mask id="id9">
  <linearGradient id="id10" gradientUnits="userSpaceOnUse" x1="7.29216" y1="6.95307" x2="8.5059" y2="6.90887">
   <stop offset="0" style="stop-opacity:1; stop-color:white"/>
   <stop offset="1" style="stop-opacity:0; stop-color:white"/>
  </linearGradient>
       <rect style="fill:url(#id10)" x="7" y="4" width="1.02702" height="5.40241"/>
      </mask>
      <mask id="id11">
  <linearGradient id="id12" gradientUnits="userSpaceOnUse" x1="6.45338" y1="13.4384" x2="7.62144" y2="13.266">
   <stop offset="0" style="stop-opacity:1; stop-color:white"/>
   <stop offset="1" style="stop-opacity:0; stop-color:white"/>
  </linearGradient>
       <rect style="fill:url(#id12)" x="7" y="11" width="0.614411" height="3.98463"/>
      </mask>
      <mask id="id13">
  <linearGradient id="id14" gradientUnits="userSpaceOnUse" x1="16.869" y1="9.15464" x2="14.3693" y2="9.55742">
   <stop offset="0" style="stop-opacity:1; stop-color:white"/>
   <stop offset="1" style="stop-opacity:0; stop-color:white"/>
  </linearGradient>
       <rect style="fill:url(#id14)" x="14" y="8" width="3.4348" height="2.14755"/>
      </mask>
      <mask id="id15">
  <linearGradient id="id16" gradientUnits="userSpaceOnUse" x1="15.6827" y1="7.57712" x2="14.3554" y2="9.08983">
   <stop offset="0" style="stop-opacity:1; stop-color:white"/>
   <stop offset="1" style="stop-opacity:0; stop-color:white"/>
  </linearGradient>
       <rect style="fill:url(#id16)" x="14" y="8" width="2.23496" height="1.48663"/>
      </mask>
      <mask id="id17">
  <linearGradient id="id18" gradientUnits="userSpaceOnUse" x1="7.18604" y1="11.2514" x2="5.78148" y2="13.1793">
   <stop offset="0" style="stop-opacity:1; stop-color:white"/>
   <stop offset="1" style="stop-opacity:0; stop-color:white"/>
  </linearGradient>
       <rect style="fill:url(#id18)" x="6" y="11" width="1.72172" height="1.71085"/>
      </mask>
      <mask id="id19">
  <linearGradient id="id20" gradientUnits="userSpaceOnUse" x1="10.4313" y1="19.3042" x2="10.5436" y2="25.8698">
   <stop offset="0" style="stop-opacity:1; stop-color:white"/>
   <stop offset="1" style="stop-opacity:0; stop-color:white"/>
  </linearGradient>
       <rect style="fill:url(#id20)" x="2" y="16" width="17.5556" height="13.3905"/>
      </mask>
      <mask id="id21">
  <linearGradient id="id22" gradientUnits="userSpaceOnUse" x1="19.2192" y1="16.5278" x2="19.2192" y2="18.5773">
   <stop offset="0" style="stop-opacity:1; stop-color:white"/>
   <stop offset="1" style="stop-opacity:0; stop-color:white"/>
  </linearGradient>
       <rect style="fill:url(#id22)" x="9" y="16" width="19.8279" height="2.8466"/>
      </mask>
  <linearGradient id="id23" gradientUnits="userSpaceOnUse" x1="8.66689" y1="17.0557" x2="12.308" y2="28.1183">
   <stop offset="0" style="stop-opacity:1; stop-color:#B6B6B7"/>
   <stop offset="0.211765" style="stop-opacity:1; stop-color:#EEEEEF"/>
   <stop offset="0.509804" style="stop-opacity:1; stop-color:#A1A1A1"/>
   <stop offset="1" style="stop-opacity:1; stop-color:#FEFEFE"/>
  </linearGradient>
  <linearGradient id="id24" gradientUnits="userSpaceOnUse" xlink:href="#id23" x1="8.66689" y1="14.736" x2="12.308" y2="3.67331">
  </linearGradient>
 </defs>
 <g id="图层_x0020_1">
  <metadata id="CorelCorpID_0Corel-Layer"/>
  <g>
  </g>
  <g style="clip-path:url(#id0)">
   <g>
    <g id="_1027149952">
     <path class="fil0" d="M3 12l3 -2 0 -6c1,-1 1,-1 1,-1 1,-1 1,0 2,0 1,1 3,2 4,3 0,0 0,0 1,1l3 -2 0 0c1,0 1,0 2,0 0,0 0,1 0,1l0 0 0 3 0 0c0,0 0,0 0,1 0,0 -1,0 -1,0 0,0 0,0 -1,0 0,0 0,0 -1,0 0,0 -1,-1 -2,-2l-7 3 0 3 0 0c0,1 -1,2 -1,2 -1,0 -1,0 -2,-1l0 0 -2 -1 0 0c0,0 0,0 0,-1 0,0 0,0 0,0 0,0 0,-1 0,-1 0,0 0,0 1,0l0 0zm5 -2l4 -3 0 0c-1,-1 -3,-2 -4,-3 0,0 0,0 0,1l0 5zm10 -3l-2 1 1 1c0,0 0,0 0,0l0 0 1 -2zm-12 5l-2 1 1 1c0,0 1,0 1,0l0 -2zm12 -6c0,0 0,0 0,0 0,0 0,0 0,0z"/>
     <polygon class="fil1" style="mask:url(#id1)" points="6,10 8,10 8,6 6,7 "/>
     <path class="fil1" style="mask:url(#id3)" d="M6 12l1 -1 0 2c0,1 0,2 0,2 0,1 -1,1 -2,1 0,0 0,0 -1,0l1 -2 0 0c0,0 0,0 0,0 1,0 1,0 1,0l0 0 0 -2z"/>
     <path class="fil1" style="mask:url(#id5)" d="M16 8l-2 0 1 1c0,0 1,1 1,1 0,0 1,0 1,0 1,1 1,0 2,0 0,-1 0,-1 0,-1l-1 -1 -1 0c0,1 0,1 0,1 0,0 0,0 0,0l0 -1 -1 0z"/>
     <polygon class="fil1" style="mask:url(#id7)" points="14,7 12,7 9,5 11,4 "/>
     <path class="fil2" style="mask:url(#id9)" d="M7 10l1 0 0 -4 0 -1c0,-1 0,-1 0,-1 0,0 0,0 0,0l0 0c0,0 0,0 0,0l0 1 0 1 -1 4z"/>
     <path class="fil2" style="mask:url(#id11)" d="M7 15c0,0 0,0 0,0 0,0 0,-1 0,-1l0 -3 0 0 0 3c0,0 0,1 0,1z"/>
     <path class="fil2" style="mask:url(#id13)" d="M17 10c0,0 0,0 0,0 0,0 0,0 0,0 0,0 -1,0 -1,0l-2 -2 0 0c1,1 2,1 2,2 1,0 1,0 1,0z"/>
     <polygon class="fil3" style="mask:url(#id15)" points="16,8 16,8 15,9 14,8 "/>
     <polygon class="fil4" style="mask:url(#id17)" points="6,12 7,11 7,12 6,13 "/>
     <path class="fil5" d="M10 15l1 0 0 -1c0,0 0,0 0,0 0,0 0,0 0,0 0,0 0,0 0,0 0,0 0,0 0,0l-1 1zm1 1l0 -1 -1 0 0 1 -1 0 2 -3 1 3 -1 0zm3 -2l-1 2 0 0 0 -2 0 0 0 -1 1 0 0 1 0 0zm3 1c0,0 0,0 0,0 0,-1 0,-1 0,-1 0,0 0,0 0,1 0,0 0,0 0,0l-1 1 -1 -1c0,0 0,0 0,0 0,-1 0,-1 0,-1 0,0 0,0 0,1 0,0 0,0 0,0l0 1 -1 0 2 -3 0 2c0,0 0,0 0,0 0,0 0,0 0,0 0,0 0,0 0,0 0,0 0,0 0,0l1 -2 0 3 0 0 0 -1zm2 0l1 0 -1 -1c0,0 0,0 0,0 0,0 0,0 0,0 0,0 0,0 0,0 0,0 0,0 0,0l0 1zm1 1l0 -1 -1 0 -1 1 0 0 2 -3 0 3 0 0zm2 -2l0 2 -1 0 1 -2 -1 0 0 -1 2 0 0 1 -1 0zm2 1l0 0c0,0 0,-1 0,-1 0,0 0,0 0,0 0,0 0,0 0,0 0,0 0,0 0,0l0 0 0 1zm0 0l-1 1 0 0 1 -3 0 0c0,0 0,0 1,0 0,0 0,0 0,1 0,0 0,0 0,0 0,0 0,0 0,0 0,0 0,0 0,1 -1,0 -1,0 -1,0l1 1 -1 0 0 -1 0 0zm1 1l1 -3 0 0 0 3 -1 0zm1 0l2 -1 -1 -2 1 0 0 1c0,0 0,0 0,0l0 0c0,0 0,0 0,0 0,0 0,0 0,0l1 -1 0 0 -1 2 1 1 -1 0 0 -1 0 0c0,0 0,0 0,0 0,0 0,0 0,0 0,0 0,0 0,0l-1 1 -1 0z"/>
     <path class="fil6" style="mask:url(#id19)" d="M3 20l3 1 0 6c1,1 1,2 1,2 1,0 1,0 2,0 1,-1 3,-2 4,-3 0,0 0,0 1,-1l3 2 0 0c1,0 1,0 2,0 0,0 0,-1 0,-1l0 0 0 -3 0 0c0,0 0,-1 0,-1 0,0 -1,0 -1,0 0,-1 0,-1 -1,-1 0,0 0,1 -1,1 0,0 -1,0 -2,1l-7 -3 0 -3 0 0c0,-1 -1,-1 -1,-1 -1,0 -1,0 -2,0l0 0 -2 2 0 0c0,0 0,0 0,0 0,1 0,1 0,1 0,0 0,0 0,0 0,1 0,1 1,1l0 0zm5 2l4 2 0 1c-1,1 -3,2 -4,2 0,1 0,1 0,0l0 -5zm10 3l-2 -1 1 -1c0,0 0,0 0,0l0 0 1 2zm-12 -5l-2 -1 1 -1c0,-1 1,-1 1,0l0 2zm12 6c0,0 0,0 0,0 0,0 0,0 0,0z"/>
     <path class="fil5" style="mask:url(#id21)" d="M10 17l1 0 0 1c0,0 0,0 0,0 0,0 0,0 0,0 0,0 0,0 0,0 0,0 0,0 0,0l-1 -1zm1 -1l0 1 -1 0 0 -1 -1 0 2 3 1 -3 -1 0zm3 3l-1 -3 0 0 0 3 0 0 0 0 1 0 0 0 0 0zm3 -1c0,0 0,0 0,0 0,0 0,0 0,0 0,0 0,0 0,0 0,0 0,0 0,0l-1 -2 -1 2c0,0 0,0 0,0 0,0 0,0 0,0 0,0 0,0 0,0 0,0 0,0 0,0l0 -2 -1 0 2 3 0 -2c0,0 0,0 0,0 0,0 0,0 0,0 0,0 0,0 0,0 0,0 0,0 0,0l1 2 0 -3 0 0 0 2zm2 -1l1 0 -1 1c0,0 0,0 0,0 0,0 0,0 0,0 0,0 0,0 0,0 0,0 0,0 0,0l0 -1zm1 -1l0 1 -1 0 -1 -1 0 0 2 3 0 -3 0 0zm2 3l0 -3 -1 0 1 3 -1 0 0 0 2 0 0 0 -1 0zm2 -1l0 0c0,0 0,0 0,0 0,0 0,0 0,0 0,0 0,0 0,0 0,0 0,0 0,0l0 0 0 0zm0 -1l-1 -1 0 0 1 3 0 0c0,0 0,0 1,0 0,0 0,0 0,0 0,0 0,0 0,-1 0,0 0,0 0,0 0,0 0,0 0,0 -1,0 -1,-1 -1,-1l1 -1 -1 0 0 1 0 0zm1 -1l1 3 0 0 0 -3 -1 0zm1 0l2 2 -1 1 1 0 0 -1c0,0 0,0 0,0l0 0c0,0 0,0 0,0 0,0 0,0 0,0l1 1 0 0 -1 -1 1 -2 -1 0 0 1 0 0c0,0 0,0 0,0 0,0 0,0 0,0 0,0 0,0 0,0l-1 -1 -1 0z"/>
    </g>
   </g>
  </g>
  <polygon class="fil7" points="0,0 30,0 30,30 0,30 "/>
 </g>
</svg>
